<?xml version="1.0" encoding="utf-8"?>
<!-- Generator: Adobe Illustrator 24.2.3, SVG Export Plug-In . SVG Version: 6.00 Build 0)  -->
<svg version="1.1" id="Layer_1" xmlns="http://www.w3.org/2000/svg" xmlns:xlink="http://www.w3.org/1999/xlink" x="0px" y="0px"
	 viewBox="0 0 24 24" style="enable-background:new 0 0 24 24;" xml:space="preserve">
<g>
	<path d="M22.4,4.1c0-1.7-1.4-3-3-3c-1.4,0-2.5,0.9-2.9,2.1c-0.1,0.3-0.1,0.6-0.1,0.9c0,0.1,0,0.3,0,0.4H7.6c0-0.1,0-0.3,0-0.4
		c0-0.3,0-0.6-0.1-0.9C7.1,1.9,6,1,4.6,1c-1.7,0-3,1.4-3,3c0,0.1,0,0.3,0,0.4h0v8.1C1.6,18.3,6.3,23,12,23c5.7,0,10.4-4.7,10.4-10.4
		V4.5h0C22.4,4.3,22.4,4.2,22.4,4.1z M12,19.9c-2.7,0-4.9-2.2-4.9-4.9c0-1.5,0.7-2.9,1.8-3.8h6.3c1.1,0.9,1.8,2.3,1.8,3.8
		C16.9,17.7,14.7,19.9,12,19.9z"/>
	<path d="M14.7,13.6c0,1.5-1.2,2.7-2.7,2.7s-2.7-1.2-2.7-2.7c0-0.2,0-0.4,0.1-0.7h5.1C14.6,13.2,14.7,13.4,14.7,13.6z"/>
</g>
</svg>
