<?xml version="1.0" encoding="utf-8"?>
<!-- Generator: Adobe Illustrator 24.2.3, SVG Export Plug-In . SVG Version: 6.00 Build 0)  -->
<svg version="1.1" id="Layer_1_1_" xmlns="http://www.w3.org/2000/svg" xmlns:xlink="http://www.w3.org/1999/xlink" x="0px" y="0px"
	 viewBox="0 0 24 24" style="enable-background:new 0 0 24 24;" xml:space="preserve">
<path d="M22.7,2h-1.2c0,1.3-0.9,2.5-2.3,3.1c-0.2,0.1-0.4,0.2-0.6,0.2c-0.1,0-0.2,0.1-0.3,0.1H5.5v0c0,0,0,0,0,0
	C5.2,5.3,5,5.2,4.8,5.1C3.5,4.6,2.6,3.4,2.6,2.1H1.3C1.2,2.8,1,3.6,1,4.3c0,3.4,1.9,6.3,4.4,7.4v0L10,22h4.1l4.5-10.2v-0.1
	c2.5-1.1,4.4-4,4.4-7.4C23,3.5,22.8,2.7,22.7,2z M13.8,18.5L13,20.4h-2.1l-0.8-1.9l-0.8-1.9h5.2L13.8,18.5z"/>
</svg>
